<svg width="11" height="10" viewBox="0 0 11 10" fill="none" xmlns="http://www.w3.org/2000/svg">
<g clip-path="url(#clip0_66_30)">
<path d="M1.2756 9.16667C1.2756 7.32571 2.76799 5.83334 4.60894 5.83334C6.4499 5.83334 7.94227 7.32571 7.94227 9.16667H7.10894C7.10894 7.78596 5.98965 6.66667 4.60894 6.66667C3.22823 6.66667 2.10894 7.78596 2.10894 9.16667H1.2756ZM4.60894 5.41667C3.22769 5.41667 2.10894 4.29792 2.10894 2.91667C2.10894 1.53542 3.22769 0.416672 4.60894 0.416672C5.99019 0.416672 7.10894 1.53542 7.10894 2.91667C7.10894 4.29792 5.99019 5.41667 4.60894 5.41667ZM4.60894 4.58334C5.52977 4.58334 6.2756 3.83751 6.2756 2.91667C6.2756 1.99584 5.52977 1.25001 4.60894 1.25001C3.6881 1.25001 2.94227 1.99584 2.94227 2.91667C2.94227 3.83751 3.6881 4.58334 4.60894 4.58334ZM8.06048 6.12617C9.21911 6.64838 10.0256 7.81334 10.0256 9.16667H9.19227C9.19227 8.15167 8.5874 7.27796 7.71844 6.8863L8.06048 6.12617ZM7.77402 1.42218C8.60661 1.76543 9.19227 2.58484 9.19227 3.54167C9.19227 4.73759 8.27735 5.71884 7.10894 5.82401V4.98526C7.8159 4.88425 8.35894 4.27667 8.35894 3.54167C8.35894 2.9664 8.02627 2.46918 7.54269 2.23182L7.77402 1.42218Z" fill="#878787"/>
</g>
<defs>
<clipPath id="clip0_66_30">
<rect width="10" height="10" fill="white" transform="translate(0.442261)"/>
</clipPath>
</defs>
</svg>
