<svg width="10" height="10" viewBox="0 0 10 10" fill="none" xmlns="http://www.w3.org/2000/svg">
<g clip-path="url(#clip0_66_26)">
<path d="M5.00001 9.16666C2.69882 9.16666 0.833344 7.30116 0.833344 5C0.833344 2.69881 2.69882 0.833328 5.00001 0.833328C7.30118 0.833328 9.16668 2.69881 9.16668 5C9.16668 7.30116 7.30118 9.16666 5.00001 9.16666ZM5.00001 8.33333C6.84097 8.33333 8.33334 6.84095 8.33334 5C8.33334 3.15904 6.84097 1.66666 5.00001 1.66666C3.15906 1.66666 1.66668 3.15904 1.66668 5C1.66668 6.84095 3.15906 8.33333 5.00001 8.33333ZM5.41668 5H7.08334V5.83333H4.58334V2.91666H5.41668V5Z" fill="#878787"/>
</g>
<defs>
<clipPath id="clip0_66_26">
<rect width="10" height="10" fill="white"/>
</clipPath>
</defs>
</svg>
